<?xml version="1.0" encoding="UTF-8" standalone="no"?>
<svg xmlns="http://www.w3.org/2000/svg" xml:space="preserve" width="460" height="440" viewBox="-230 -190 460 440">
	<defs>
		<marker id="arrowend" markerWidth="10" markerHeight="7" refX="8" refY="3" orient="auto">
			<path d="M 1,1 L 9,3 L 1,5" style="fill:none; stroke:#000000; stroke-width:1;"/>
		</marker>
	</defs>
	<g style="stroke:#000000; stroke-width:3; fill:none;">
		<path style="marker-end:url(#arrowend);" d="M 180,0 A 180,180 0 0 1 90,155.9"/>
		<path style="marker-end:url(#arrowend);" d="M -90,155.9 A 180,180 0 0 1 -180,0"/>
		<path style="marker-end:url(#arrowend);" d="M -90,-155.9 A 180,180 0 0 1 90,-155.9"/>
	</g>
	<g style="stroke:#ffffff; stroke-width:2; fill:none;">
		<g transform="translate(0,180)">
			<g transform="translate(-307,-395)">
				<circle cx="307" cy="395" r="62" fill="maroon"/>
				<path d="M 280.285,439.183 280.375,439.586 C 280.714,439.498 281.103,439.489 281.384,439.311 285.523,436.675 289.742,434.208 294.351,432.449 297.662,431.184 301.017,430.031 304.042,428.08 306.143,426.725 308.372,425.533 310.641,424.479 313.851,422.988 316.748,421.096 319.217,418.566 322.933,414.758 327.023,411.398 331.326,408.279 332.935,407.113 334.433,405.79 335.943,404.492 336.296,404.19 336.489,403.703 336.753,403.299 337.345,402.39 337.774,401.298 338.558,400.607 340.368,399.008 340.788,397.11 340.317,394.878 339.924,393.023 339.482,391.176 339.133,389.313 338.628,386.608 337.884,384.002 336.237,381.746 335.676,380.977 335.382,380.191 335.387,379.209 335.392,378.575 335.114,377.887 334.798,377.312 333.288,374.558 331.448,372.033 329.22,369.815 328.782,369.378 328.748,369.036 328.848,368.468 329.008,367.556 329.304,366.492 328.996,365.707 327.993,363.146 326.278,361.229 323.39,360.657 320.403,360.066 317.415,360.232 314.417,360.508 314.049,360.542 313.579,360.516 313.301,360.316 312.22,359.54 311.046,359.51 309.873,359.867 307.127,360.701 304.769,362.217 302.706,364.199 302.51,364.388 302.315,364.606 302.197,364.847 300.759,367.788 298.478,370.087 296.331,372.474 292.685,376.525 290.228,381.168 288.998,386.475"/>
				<path d="M 280.285 439.183c4.176-2.481 8.247-5.152 12.819-6.908 1.486-.57 3.004-1.073 4.444-1.743 2.214-1.029 4.383-2.156 6.552-3.28 2.497-1.295 4.942-2.694 7.468-3.93 2.423-1.187 4.644-2.649 6.521-4.565 4.285-4.373 8.995-8.231 13.959-11.797.82-.59 1.585-1.256 2.368-1.896.932-.762 1.708-1.589 2.081-2.824.215-.711.799-1.409 1.396-1.888 1.864-1.494 2.314-3.362 1.774-5.586-.166-.683-.308-1.372-.48-2.15-.755.392-.893-.051-.773-.6.398-1.852-.178-3.428-1.229-4.916-.2-.284-.199-.71-.291-1.07.108-.032.216-.065.323-.099l.572.925c-.076-1.825-2.294-5.637-4.074-7.05l.46 1.181-.254.154c-.222-.246-.503-.46-.655-.743-.42-.781-.837-1.571-1.161-2.395-.642-1.63-1.811-2.447-3.542-2.618-.969-.096-1.926-.343-2.875-.575-.252-.062-.456-.32-.869-.629.401-.075.521-.133.623-.11 1.224.259 2.436.584 3.668.786 1.544.252 2.586 1.03 3.341 2.423.499.92 1.332 1.66 2.016 2.481l.377-.209c-.148-.559-.2-1.168-.462-1.668-1.487-2.842-3.367-5.419-5.652-7.662-.64-.629-1.619-.911-2.443-1.353l-.205.229c.378.512.766 1.017 1.127 1.539.119.172.169.391.251.588-.233-.059-.536-.044-.687-.188-.326-.315-.591-.7-.853-1.076a32.404 32.404 0 0 1-1.062-1.61c-.841-1.371-2.075-1.952-3.65-1.809-1.342.123-2.678.305-4.02.424-.341.029-.693-.081-1.041-.128l.014-.336c.578-.065 1.154-.149 1.734-.194 1.492-.115 2.989-.321 4.478-.27.696.024 1.595.384 2.016.903.971 1.195 2.317 1.503 3.62 2.029.703-1.511.727-2.866-.176-4.362-1.664-2.758-4.228-3.615-7.166-3.679-2.106-.045-4.218.187-6.329.242-.455.013-.994-.085-1.359-.332-.897-.605-1.853-.729-2.807-.396-3.508 1.228-6.575 2.962-8.482 6.432-.973 1.77-2.437 3.301-3.829 4.8-3.102 3.341-5.715 6.992-7.166 11.332-.89 2.662-1.459 5.432-2.156 8.157-.455 1.779-.803 3.591-1.354 5.338-.305.966-.786 1.955-1.438 2.719-2.502 2.927-5.509 5.007-9.384 5.901-2.753.636-5.407 1.738-8.06 2.756-2.713 1.042-5.368 2.234-8.051 3.358-.275.115-.558.215-.837.322l-.238-.218c.168-.209.293-.522.51-.612 4.102-1.693 8.193-3.416 12.335-5.007 1.762-.677 3.634-1.07 5.458-1.582 3.618-1.014 6.335-3.277 8.476-6.258.495-.688.678-1.63.893-2.483a495.352 495.352 0 0 0 2.154-8.927c1.23-5.307 3.688-9.95 7.333-14.001 2.147-2.387 4.429-4.686 5.866-7.627.118-.241.312-.459.509-.648 2.062-1.982 4.421-3.498 7.167-4.332 1.173-.356 2.347-.327 3.428.449.278.2.748.227 1.116.192 2.998-.275 5.985-.441 8.973.149 2.889.572 4.604 2.489 5.606 5.05.308.785.012 1.849-.148 2.761-.1.567-.066.91.372 1.347 2.229 2.218 4.068 4.743 5.578 7.497.315.575.594 1.264.589 1.897-.006.982.289 1.769.85 2.537 1.646 2.257 2.391 4.862 2.896 7.567.349 1.863.791 3.71 1.184 5.565.472 2.232.051 4.131-1.759 5.729-.783.691-1.213 1.783-1.805 2.692-.264.404-.457.892-.81 1.193-1.51 1.298-3.008 2.621-4.617 3.787-4.304 3.119-8.394 6.479-12.109 10.287-2.469 2.53-5.366 4.422-8.576 5.913-2.269 1.054-4.498 2.245-6.599 3.601-3.025 1.951-6.381 3.104-9.691 4.369-4.608 1.76-8.828 4.227-12.967 6.862-.281.179-.67.188-1.009.275-.035-.131-.065-.266-.095-.399z"/>
			</g>
		</g>
		<g transform="translate(-155.9,-90)">
			<g transform="translate(-168,-136)">
				<circle cx="168" cy="136" r="62" fill="green"/>
				<path d="m129.451 177.428.111.377c.347-.069.732-.062 1.032-.219 1.572-.826 3.115-1.705 4.685-2.537.399-.212.848-.342 1.286-.469 1.049-.306 2.186-.426 3.143-.908a79.747 79.747 0 0 0 6.486-3.631c5.509-3.45 10.153-7.999 15.156-12.092.238-.195.445-.55.479-.852.107-.945.704-1.481 1.458-1.872 1.032-.535 2.072-1.069 3.151-1.494 3.74-1.473 5.286-6.582 2.404-9.396-.46-.449-.387-.88-.05-1.385a30.363 30.363 0 0 0 1.58-2.585c.6-1.126.753-2.332.309-3.556-.598-1.65-1.888-2.686-3.312-3.569-1.104-.684-2.238-1.291-3.623-.713-.182.076-.509-.197-.768-.309.106-.23.154-.537.333-.675.554-.43 1.131-.845 1.746-1.18 4.056-2.212 8.072-4.402 11.717-7.358 4.078-3.309 8.643-6.019 12.992-8.995 1.087-.744 2.197-1.461 3.221-2.285.393-.316.727-.866.824-1.361.497-2.521-1.862-5.583-4.9-4.707-3.012.869-5.946 1.886-8.638 3.542-1.354.832-2.793 1.524-4.195 2.276-5.15 2.763-10.477 5.227-15.073 8.931-.855.689-1.822 1.239-2.738 1.853-.639.428-1.072.235-1.374-.434-.654-1.451-.594-2.91-.089-4.385.923-2.692 1.679-5.454 2.786-8.067 1.946-4.591 4.118-9.085 6.163-13.634.575-1.28 1.168-2.576 1.518-3.926.387-1.493-.071-2.892-1.327-3.86-1.234-.953-2.634-.836-3.887-.078-.816.495-1.606 1.173-2.154 1.949-4.492 6.353-9.061 12.663-12.23 19.835-.952 2.156-1.906 4.319-3.005 6.401a16.284 16.284 0 0 1-2.412 3.421 16.678 16.678 0 0 0-2.736 3.989c-.573 1.161-1.353 2.244-2.171 3.256-1.29 1.596-2.775 3.038-4.028 4.661-4.702 6.089-9.329 12.237-14.028 18.329a6.566 6.566 0 0 1-2.058 1.748c-2.434 1.289-4.933 2.456-7.404 3.673-.211.104-.408.234-.611.353l.05.312c.266-.019.569.04.792-.068 2.479-1.203 4.938-2.45 7.42-3.646.997-.48 1.766-1.167 2.406-2.063 1.14-1.596 2.332-3.155 3.502-4.73 4.569-6.154 9.084-12.352 14.311-17.979a14.644 14.644 0 0 0 2.499-3.707c.521-1.089 1.139-2.215 1.984-3.049a16.259 16.259 0 0 0 3.477-5.025c.474-1.062 1.021-2.094 1.461-3.169 3.215-7.869 8.046-14.777 12.899-21.667.618-.878 1.425-1.742 2.342-2.271 2.154-1.244 4.212-.088 4.383 2.385.046.674-.135 1.417-.399 2.05a50.37 50.37 0 0 1-2.036 4.315c-3.499 6.536-5.88 13.518-8.225 20.514-.52 1.55-.414 3.092.341 4.551.521 1.006 1.032 1.193 2.005.613 1.182-.704 2.315-1.497 3.428-2.308 2.677-1.95 5.401-3.792 8.392-5.269 3.62-1.788 7.155-3.756 10.67-5.748 2.61-1.479 5.393-2.439 8.245-3.298 2.199-.662 4.309 1.6 4.077 3.701-.056.512-.399 1.132-.809 1.439-1.419 1.065-2.934 2.002-4.396 3.011-4.061 2.801-8.254 5.434-12.12 8.481-2.745 2.163-5.592 4.057-8.686 5.63-.955.486-1.909.979-2.827 1.531a10.49 10.49 0 0 0-1.758 1.313c-.221.206-.41.725-.3.942.186.363.586.67.966.86.229.115.593-.072.895-.062.593.019 1.296-.109 1.756.161 1.148.674 2.29 1.427 3.242 2.348 1.308 1.265 1.464 2.867.619 4.48-.549 1.049-1.218 2.036-1.894 3.149-1.069-.872-2.052-1.679-3.043-2.475-.121-.098-.292-.135-.439-.2-.016.187-.117.453-.031.547.345.38.754.701 1.128 1.055 1.037.982 2.182 1.878 3.076 2.976 1.688 2.071 1.317 5.173-.689 6.936-.156.138-.362.342-.527.327-1.581-.151-2.884.441-3.885 1.586-.852.975-2.252 1.56-2.329 3.138-.01.212-.313.435-.52.609-2.689 2.279-5.324 4.63-8.095 6.808-5.12 4.022-10.171 8.112-16.773 9.704-2.246.541-4.244 2.104-6.354 3.2z"/>
				<path d="M129.451 177.428c2.109-1.096 4.107-2.659 6.351-3.199 6.603-1.592 11.653-5.682 16.773-9.704 2.771-2.177 5.405-4.528 8.095-6.808.206-.174.51-.396.52-.609.077-1.578 1.478-2.163 2.329-3.138 1.001-1.145 2.304-1.737 3.885-1.586.165.016.371-.189.527-.327 2.007-1.763 2.378-4.865.689-6.936-.895-1.098-2.039-1.994-3.076-2.976-.374-.354-.783-.675-1.128-1.055-.086-.095.016-.36.031-.547.147.065.318.102.439.2.991.795 1.974 1.603 3.043 2.475.676-1.114 1.345-2.1 1.894-3.149.845-1.613.688-3.215-.619-4.48-.952-.921-2.094-1.674-3.242-2.348-.46-.27-1.163-.142-1.756-.161-.302-.01-.665.177-.895.062-.38-.189-.78-.497-.966-.86-.11-.217.079-.736.3-.942a10.49 10.49 0 0 1 1.758-1.313c.918-.552 1.872-1.045 2.827-1.531 3.094-1.573 5.94-3.467 8.686-5.63 3.866-3.047 8.06-5.68 12.12-8.481 1.463-1.009 2.978-1.945 4.396-3.011.409-.307.753-.928.809-1.439.231-2.102-1.878-4.363-4.077-3.701-2.853.858-5.635 1.819-8.245 3.298-3.515 1.992-7.05 3.96-10.67 5.748-2.99 1.477-5.715 3.319-8.392 5.269-1.112.811-2.246 1.604-3.428 2.308-.973.58-1.484.393-2.005-.613-.755-1.459-.86-3.001-.341-4.551 2.345-6.996 4.726-13.978 8.225-20.514a50.37 50.37 0 0 0 2.036-4.315c.265-.632.445-1.375.399-2.05-.171-2.473-2.229-3.629-4.383-2.385-.917.529-1.724 1.392-2.342 2.271-4.854 6.891-9.685 13.799-12.899 21.667-.439 1.076-.987 2.107-1.461 3.169a16.242 16.242 0 0 1-3.477 5.025c-.846.834-1.463 1.96-1.984 3.049a14.68 14.68 0 0 1-2.499 3.707c-5.227 5.627-9.742 11.826-14.311 17.979-1.17 1.575-2.362 3.134-3.502 4.73-.64.896-1.409 1.583-2.406 2.063-2.482 1.196-4.941 2.442-7.42 3.646-.223.108-.526.049-.792.068l-.05-.312c.203-.119.4-.25.611-.353 2.472-1.218 4.97-2.384 7.404-3.673a6.566 6.566 0 0 0 2.058-1.748c4.699-6.092 9.326-12.239 14.028-18.329 1.253-1.623 2.738-3.064 4.028-4.661.818-1.012 1.598-2.095 2.171-3.256a16.678 16.678 0 0 1 2.736-3.989 16.284 16.284 0 0 0 2.412-3.421c1.099-2.083 2.053-4.245 3.005-6.401 3.17-7.172 7.738-13.482 12.23-19.835.548-.776 1.338-1.454 2.154-1.949 1.253-.758 2.652-.875 3.887.078 1.256.968 1.714 2.367 1.327 3.86-.35 1.35-.942 2.646-1.518 3.926-2.045 4.549-4.217 9.043-6.163 13.634-1.107 2.613-1.863 5.375-2.786 8.067-.505 1.475-.565 2.934.089 4.385.302.669.735.862 1.374.434.916-.613 1.883-1.163 2.738-1.853 4.597-3.705 9.923-6.168 15.073-8.931 1.402-.752 2.842-1.444 4.195-2.276 2.691-1.655 5.626-2.673 8.638-3.542 3.038-.876 5.397 2.186 4.9 4.707a2.516 2.516 0 0 1-.824 1.361c-1.023.824-2.134 1.541-3.221 2.285-4.35 2.976-8.914 5.686-12.992 8.995-3.645 2.957-7.661 5.146-11.717 7.358-.615.335-1.192.75-1.746 1.18-.179.139-.227.445-.333.675.259.111.586.384.768.309 1.385-.577 2.519.029 3.623.713 1.425.883 2.715 1.918 3.312 3.569.444 1.224.291 2.43-.309 3.556-.475.89-1.019 1.746-1.58 2.585-.337.505-.41.936.05 1.385 2.882 2.814 1.336 7.923-2.404 9.396-1.079.425-2.119.959-3.151 1.494-.754.39-1.351.926-1.458 1.872-.034.302-.241.656-.479.852-5.003 4.093-9.647 8.643-15.156 12.092a80.219 80.219 0 0 1-6.486 3.631c-.957.482-2.094.603-3.143.908-.438.127-.887.257-1.286.469-1.569.832-3.112 1.711-4.685 2.537-.3.156-.686.149-1.032.219a13.89 13.89 0 0 0-.108-.378z"/>
			</g>
		</g>
		<g transform="translate(155.9,-90)">
			<g transform="translate(-454,-136)">
				<circle cx="454" cy="136" r="62" fill="navy"/>
				<path d="M483.381 98.885c-.098-.8-.015-1.64-.313-2.309-1.026-2.297-3.074-2.985-5.628-1.951-2.954 1.197-5.585 2.973-8.008 4.991-3.717 3.094-7.279 6.374-10.934 9.544-1.392 1.208-2.856 2.33-4.344 3.536-.242-1.865-1.093-2.573-2.838-2.229-1.187.234-2.321.737-3.478 1.125-2.024.679-4.004 1.616-6.083 1.979-2.527.442-4.319 1.608-5.696 3.72-2.551 3.913-5.557 7.474-8.704 10.919-.398.436-.713 1-.908 1.561-1.307 3.758-2.609 7.519-3.838 11.303-1.053 3.242-2.71 6.328-2.619 9.885.008.283-.38.686-.684.848-1.617.87-3.271 1.67-4.898 2.523-.216.113-.35.384-.521.581.258.001.561.092.768-.011 1.566-.77 3.094-1.621 4.675-2.356.882-.41 1.303-.973 1.354-1.957.061-1.155.091-2.364.449-3.444 1.911-5.75 3.917-11.47 5.904-17.195.137-.395.319-.814.598-1.114a103.185 103.185 0 0 0 9.558-12.004c.937-1.373 2.16-2.18 3.818-2.427 2.622-.392 5.099-1.247 7.49-2.407.946-.459 2.015-.711 3.054-.925.642-.131 1.402-.126 1.776.614.399.792.156 1.602-.593 2.238-.374.318-.729.663-1.13.942-4.372 3.047-8.787 6.035-13.118 9.14-3.135 2.247-6.164 4.641-9.229 6.985-.249.19-.409.495-.61.746l.222.228c.229-.145.476-.268.682-.44.612-.511 1.168-1.097 1.815-1.555 4.253-3.004 8.464-6.072 12.803-8.946 5.666-3.751 10.847-8.097 15.963-12.536 1.733-1.504 3.477-2.998 5.217-4.495 1.068-.918 2.177-1.793 3.201-2.758 2.409-2.269 5.151-4.047 8.069-5.564.722-.375 1.536-.6 2.332-.802 1.178-.299 2.164.093 2.962 1.001.823.938 1.137 1.973.492 3.115-.309.546-.682 1.091-1.138 1.515-5.642 5.231-11.548 10.171-16.847 15.777-1.946 2.058-4.247 3.781-6.378 5.665-.145.128-.229.324-.343.489l.199.212c.352-.191.754-.325 1.046-.583 2.041-1.805 4.178-3.521 6.062-5.48 6.729-6.995 14.056-13.323 21.471-19.558.912-.767 1.991-1.097 3.142-1.126 2.28-.058 3.843 2.66 2.783 4.919-.409.872-1.025 1.67-1.657 2.409-1.77 2.07-3.584 4.101-5.401 6.128-5.176 5.772-10.222 11.669-16.255 16.608-.864.707-1.536 1.656-2.261 2.524-.21.252-.292.611-.433.921l.235.181c.17-.146.359-.275.506-.441.909-1.028 1.677-2.231 2.734-3.071 4.301-3.412 7.909-7.511 11.624-11.5 2.674-2.871 5.207-5.873 7.813-8.807.84-.945 1.858-1.166 2.887-.676 1.87.891 2.676 3.707 1.536 5.426-2.826 4.263-5.646 8.52-8.783 12.577-2.562 3.313-5.225 6.479-8.364 9.254-1.005.889-1.961 1.874-2.758 2.95-1.292 1.744-2.442 3.594-3.627 5.416-.115.178-.053.471-.073.71.199-.141.443-.247.588-.431.225-.287.38-.628.566-.944a35.713 35.713 0 0 1 5.699-7.294c3.62-3.567 7.14-7.236 10.698-10.866.579-.59 1.092-1.254 1.717-1.79.941-.808 2.282-.737 2.847.143.587.915 1.078 1.958.69 3.037-.522 1.458-1.122 2.914-1.898 4.249-2.387 4.106-5.609 7.585-8.687 11.159-3.659 4.25-7.479 8.361-10.247 13.303-.515.92-1.236 1.777-2.025 2.482-4.709 4.206-9.402 8.435-14.226 12.51-4.675 3.949-9.674 7.417-15.576 9.376-1.321.439-2.558 1.132-3.833 1.707.027.114.056.228.084.341.386-.063.803-.054 1.153-.203 1.55-.657 3.041-1.467 4.624-2.023 3.485-1.226 6.566-3.139 9.52-5.297 5.877-4.295 11.271-9.162 16.675-14.022 2.333-2.099 4.209-4.497 5.851-7.151 1.155-1.868 2.499-3.635 3.9-5.33 2.441-2.954 5-5.809 7.492-8.72 2.574-3.007 5.077-6.073 6.854-9.642.433-.869.773-1.807.995-2.751.347-1.481-.562-3.576-1.66-4.106-1.175-.567-2.51-.113-3.796 1.292-.442.484-.881.972-1.321 1.458-.067-.184-.021-.281.039-.369 2.459-3.547 4.911-7.099 7.382-10.638.718-1.028.935-2.108.537-3.306-.628-1.895-1.667-3.323-3.989-3.402.262-.313.482-.522.638-.771.595-.955 1.361-1.857 1.712-2.897 1.04-3.085-1.433-5.82-4.583-5.072-.997.236-1.941.844-2.81 1.43-.876.592-1.628 1.369-2.358 2z"/>
				<path d="M483.381 98.885c.73-.631 1.482-1.408 2.358-2 .868-.586 1.812-1.194 2.81-1.43 3.15-.748 5.623 1.987 4.583 5.072-.351 1.041-1.117 1.943-1.712 2.897-.155.25-.376.458-.638.771 2.322.079 3.361 1.507 3.989 3.402.397 1.198.181 2.278-.537 3.306-2.471 3.539-4.923 7.09-7.382 10.638-.061.087-.106.185-.039.369.44-.486.879-.973 1.321-1.458 1.286-1.405 2.621-1.858 3.796-1.292 1.098.53 2.007 2.625 1.66 4.106a12.762 12.762 0 0 1-.995 2.751c-1.776 3.569-4.279 6.635-6.854 9.642-2.492 2.912-5.051 5.767-7.492 8.72-1.401 1.695-2.745 3.462-3.9 5.33-1.642 2.654-3.518 5.052-5.851 7.151-5.404 4.86-10.798 9.728-16.675 14.022-2.953 2.158-6.034 4.071-9.52 5.297-1.583.557-3.074 1.366-4.624 2.023-.351.149-.768.14-1.153.203-.028-.113-.057-.227-.084-.341 1.275-.575 2.512-1.268 3.833-1.707 5.902-1.959 10.901-5.427 15.576-9.376 4.823-4.075 9.517-8.304 14.226-12.51.789-.705 1.511-1.562 2.025-2.482 2.768-4.941 6.588-9.053 10.247-13.303 3.077-3.574 6.3-7.053 8.687-11.159.776-1.335 1.376-2.791 1.898-4.249.388-1.079-.104-2.123-.69-3.037-.564-.879-1.905-.951-2.847-.143-.625.536-1.138 1.199-1.717 1.79-3.559 3.63-7.078 7.298-10.698 10.866a35.679 35.679 0 0 0-5.699 7.294c-.187.316-.342.657-.566.944-.145.184-.389.29-.588.431.021-.239-.042-.532.073-.71 1.185-1.822 2.335-3.672 3.627-5.416.797-1.076 1.753-2.061 2.758-2.95 3.14-2.775 5.803-5.941 8.364-9.254 3.137-4.058 5.957-8.314 8.783-12.577 1.14-1.719.334-4.535-1.536-5.426-1.028-.49-2.047-.27-2.887.676-2.606 2.934-5.14 5.936-7.813 8.807-3.715 3.989-7.323 8.087-11.624 11.5-1.058.839-1.825 2.042-2.734 3.071-.146.166-.336.295-.506.441l-.235-.181c.141-.31.223-.669.433-.921.725-.868 1.396-1.817 2.261-2.524 6.033-4.939 11.079-10.836 16.255-16.608 1.817-2.027 3.632-4.059 5.401-6.128.632-.738 1.248-1.537 1.657-2.409 1.06-2.259-.503-4.977-2.783-4.919-1.15.029-2.229.36-3.142 1.126-7.415 6.235-14.741 12.563-21.471 19.558-1.884 1.959-4.021 3.675-6.062 5.48-.292.258-.694.392-1.046.583l-.199-.212c.113-.165.198-.36.343-.489 2.131-1.884 4.432-3.607 6.378-5.665 5.299-5.606 11.205-10.546 16.847-15.777.456-.423.829-.968 1.138-1.515.645-1.143.331-2.177-.492-3.115-.798-.909-1.784-1.3-2.962-1.001-.796.202-1.61.426-2.332.802-2.918 1.517-5.66 3.295-8.069 5.564-1.024.965-2.133 1.84-3.201 2.758-1.74 1.497-3.483 2.991-5.217 4.495-5.116 4.439-10.297 8.785-15.963 12.536-4.339 2.874-8.55 5.942-12.803 8.946-.647.458-1.203 1.044-1.815 1.555-.206.172-.453.295-.682.44l-.222-.228c.201-.251.361-.556.61-.746 3.064-2.344 6.094-4.738 9.229-6.985 4.331-3.105 8.746-6.093 13.118-9.14.401-.279.756-.625 1.13-.942.749-.637.992-1.447.593-2.238-.374-.74-1.135-.746-1.776-.614-1.039.213-2.107.465-3.054.925-2.392 1.16-4.868 2.015-7.49 2.407-1.658.248-2.882 1.054-3.818 2.427a103.08 103.08 0 0 1-9.558 12.004c-.278.3-.461.719-.598 1.114-1.987 5.725-3.993 11.445-5.904 17.195-.358 1.08-.389 2.289-.449 3.444-.051.984-.472 1.547-1.354 1.957-1.581.735-3.108 1.587-4.675 2.356-.207.103-.51.012-.768.011.171-.197.305-.468.521-.581 1.627-.853 3.281-1.653 4.898-2.523.304-.163.691-.565.684-.848-.091-3.557 1.566-6.643 2.619-9.885 1.229-3.784 2.531-7.545 3.838-11.303.195-.561.51-1.125.908-1.561 3.147-3.446 6.153-7.007 8.704-10.919 1.377-2.111 3.169-3.278 5.696-3.72 2.079-.363 4.059-1.3 6.083-1.979 1.156-.388 2.291-.891 3.478-1.125 1.745-.344 2.596.364 2.838 2.229 1.487-1.206 2.952-2.329 4.344-3.536 3.654-3.17 7.217-6.45 10.934-9.544 2.423-2.018 5.054-3.794 8.008-4.991 2.554-1.034 4.602-.346 5.628 1.951.298.669.215 1.508.313 2.309z"/>
			</g>
		</g>
		<g transform="translate(0,72)">
			<g transform="translate(-307,-294)">
				<circle cx="307" cy="294" r="36" fill="maroon"/>
				<path d="M 327.508,311.029 C 316.762,315.254 317.883,313.492 315.329,314.515 314.955,314.664 307.347,310.505 304.464,310.254 301.579,310.003 290.539,312.371 284.645,307.174 278.752,301.974 282.113,291.167 282.113,291.167 282.113,291.167 282.504,277.022 293.495,272.737 302.645,269.169 306.419,270.735 306.419,270.735 L 319.38,274.661 323.537,277.982 C 323.537,277.982 330.204,288.058 331.248,289.325 332.291,290.594 340.052,306.098 327.508,311.029 z"/>
			</g>
		</g>
		<g transform="translate(-62.4,-36)">
			<g transform="translate(-239,-188)">
				<circle cx="239" cy="188" r="36" fill="green"/>
				<path d="M 268.58,187.535 C 268.47,187.806 268.345,188.07 268.255,188.345 267.176,191.622 263.966,193.376 260.609,192.505 258.103,191.854 255.622,191.104 253.095,190.552 250.029,189.88 247.027,190.507 244.076,191.358 243.838,191.428 243.562,191.856 243.547,192.13 243.3,196.36 244.114,200.35 246.35,204.004 247.121,205.263 247.834,206.556 248.612,207.812 250.763,211.283 249.068,216.199 244.881,217.129 244.757,217.156 244.648,217.243 244.531,217.302 H 243.151 C 241.23,216.725 239.52,215.864 238.331,214.134 236.22,211.056 236.951,207.235 240.092,205.47 240.644,205.161 241.313,205.02 241.946,204.898 243.112,204.677 243.496,204.171 243.138,203.036 242.873,202.195 242.486,201.391 242.164,200.566 241.16,198.002 240.126,195.449 239.181,192.862 238.924,192.156 238.584,191.896 237.854,191.862 231.984,191.598 226.114,191.325 220.248,191 218.584,190.905 216.897,190.776 215.281,190.399 212.703,189.799 210.768,188.013 210.082,185.817 219.153,186.117 228.166,186.418 237.358,186.72 L 229.836,160.663 C 232.148,160.941 233.824,162.032 234.999,163.776 A 14.322,14.322 0 0 1 236.759,167.374 C 238.72,173.532 240.602,179.717 242.478,185.902 242.7,186.635 243.016,186.915 243.815,187.003 247.009,187.352 250.19,187.814 253.376,188.23 253.766,188.281 254.16,188.34 254.551,188.334 255.57,188.322 256,187.851 255.886,186.845 255.347,182.053 259.872,179.433 263.935,180.945 266.201,181.788 267.739,183.341 268.366,185.725 268.406,185.877 268.507,186.012 268.58,186.156 V 187.535 z M 261.967,190.012 C 264.11,190.012 265.72,188.541 265.719,186.587 265.718,184.825 263.886,183.164 261.947,183.168 260.005,183.171 258.387,184.787 258.375,186.731 258.365,188.586 259.927,190.012 261.967,190.012 z M 240.052,210.795 C 240.045,212.696 241.715,214.449 243.547,214.462 245.351,214.477 246.736,212.991 246.73,211.049 246.722,209.03 245.211,207.328 243.418,207.322 241.604,207.316 240.059,208.91 240.052,210.795 z"/>
			</g>
		</g>
		<g transform="translate(62.4,-36)">
			<g transform="translate(-367,-191)">
			<circle cx="367" cy="191" r="36" fill="navy"/>
			<path d="M 371.735,165.134 V 184.714 L 387.887,182.326 V 215.644 H 349.566 V 165.133 L 371.735,165.134 z M 387.888,182.326 371.735,165.134"/>
			</g>
		</g>
	</g>
	<g font-family="Arial,sans-serif" text-anchor="middle">
		<switch transform="translate(0 -125)"><text systemLanguage="zh-hans" id="trsvg145"><tspan x="0" y="-5" font-size="30" id="trsvg37">剪刀/剪子</tspan><tspan x="0" y="20" font-size="18" id="trsvg38">赢布</tspan></text><text systemLanguage="zh-hant" id="trsvg146"><tspan x="0" y="-5" font-size="30" id="trsvg39">剪刀/剪子</tspan><tspan x="0" y="20" font-size="18" id="trsvg40">贏布</tspan></text>
			
			
			<text systemLanguage="ast" id="trsvg127"><tspan x="0" y="-5" font-size="30" id="trsvg1">Tisories</tspan><tspan x="0" y="20" font-size="18" id="trsvg2">vencen a papel</tspan></text>
			<text systemLanguage="ckb" id="trsvg128"><tspan x="0" y="-5" font-size="30" id="trsvg3">مەقەست</tspan><tspan x="0" y="20" font-size="18" id="trsvg4">لە وەرەقە دەدات</tspan></text>
			<text systemLanguage="cs" id="trsvg129"><tspan x="0" y="-5" font-size="30" id="trsvg5">Nůžky</tspan><tspan x="0" y="20" font-size="18" id="trsvg6">porazí papír</tspan></text>
			<text systemLanguage="de" id="trsvg130"><tspan x="0" y="-5" font-size="30" id="trsvg7">Schere</tspan><tspan x="0" y="20" font-size="18" id="trsvg8">schlägt Papier</tspan></text>
			<text systemLanguage="es" id="trsvg131"><tspan x="0" y="-5" font-size="30" id="trsvg9">Tijeras</tspan><tspan x="0" y="20" font-size="18" id="trsvg10">vencen a papel</tspan></text>
			<text systemLanguage="fr" id="trsvg132"><tspan x="0" y="-5" font-size="30" id="trsvg11">Ciseaux</tspan><tspan x="0" y="20" font-size="18" id="trsvg12">battent la feuille</tspan></text>
			<text systemLanguage="hr" id="trsvg133"><tspan x="0" y="-5" font-size="30" id="trsvg13">Škare</tspan><tspan x="0" y="20" font-size="18" id="trsvg14">pobjeđuje papir</tspan></text>
			<text systemLanguage="hu" id="trsvg134"><tspan x="0" y="-5" font-size="30" id="trsvg15">Olló</tspan><tspan x="0" y="20" font-size="18" id="trsvg16">legyőzi a papírt</tspan></text>
			<text systemLanguage="it" id="trsvg135"><tspan x="0" y="-5" font-size="30" id="trsvg17">Forbici</tspan><tspan x="0" y="20" font-size="18" id="trsvg18">battono la carta</tspan></text>
			<text systemLanguage="ja" id="trsvg136"><tspan x="0" y="-5" font-size="30" id="trsvg19">チョキは</tspan><tspan x="0" y="20" font-size="18" id="trsvg20">パーに勝ち</tspan></text>
			<text systemLanguage="lv" id="trsvg137"><tspan x="0" y="-5" font-size="30" id="trsvg21">Šķēres</tspan><tspan x="0" y="20" font-size="18" id="trsvg22">uzvar papīru</tspan></text>
			<text systemLanguage="nl" id="trsvg138"><tspan x="0" y="-5" font-size="30" id="trsvg23">Schaar</tspan><tspan x="0" y="20" font-size="18" id="trsvg24">verslaat papier</tspan></text>
			<text systemLanguage="no" id="trsvg139"><tspan x="0" y="-5" font-size="30" id="trsvg25">Saks</tspan><tspan x="0" y="20" font-size="18" id="trsvg26">slår papir</tspan></text>
			<text systemLanguage="pl" id="trsvg140"><tspan x="0" y="-5" font-size="30" id="trsvg27">Nożyce</tspan><tspan x="0" y="20" font-size="18" id="trsvg28">biją papier</tspan></text>
			<text systemLanguage="ro" id="trsvg141"><tspan x="0" y="-5" font-size="30" id="trsvg29">Foarfecele</tspan><tspan x="0" y="20" font-size="18" id="trsvg30">taie hȃrtia</tspan></text>
			<text systemLanguage="ru" id="trsvg142"><tspan x="0" y="-5" font-size="30" id="trsvg31">Ножницы</tspan><tspan x="0" y="20" font-size="18" id="trsvg32">побеждают бумагу</tspan></text>
			<text systemLanguage="sv" id="trsvg143"><tspan x="0" y="-5" font-size="30" id="trsvg33">Sax</tspan><tspan x="0" y="20" font-size="18" id="trsvg34">slår påse</tspan></text>
			<text systemLanguage="uk" id="trsvg144"><tspan x="0" y="-5" font-size="30" id="trsvg35">Ножиці</tspan><tspan x="0" y="20" font-size="18" id="trsvg36">перемагають папір</tspan></text>
			<text id="trsvg147-be" systemLanguage="be"><tspan x="0" y="-5" font-size="30" id="trsvg41-be">Нажніцы</tspan><tspan x="0" y="20" font-size="18" id="trsvg42-be">перамагаюць паперу</tspan></text>
			<text id="trsvg147-tok" systemLanguage="tok"><tspan x="0" y="-5" font-size="30" id="trsvg41-tok">ilo kipisi</tspan><tspan x="0" y="20" font-size="18" id="trsvg42-tok">li anpa e lipu</tspan></text><text id="trsvg147-vi" systemLanguage="vi"><tspan x="0" y="-5" font-size="30" id="trsvg41-vi">Kéo</tspan><tspan x="0" y="20" font-size="18" id="trsvg42-vi">thắng bao</tspan></text><text id="trsvg147"><tspan x="0" y="-5" font-size="30" id="trsvg41">Scissors</tspan><tspan x="0" y="20" font-size="18" id="trsvg42">beats paper</tspan></text></switch>
		<switch transform="rotate(-60) translate(0,125)"><text systemLanguage="zh-hans" id="trsvg166"><tspan x="0" y="-5" font-size="30" id="trsvg79">布</tspan><tspan x="0" y="20" font-size="18" id="trsvg80">赢石头</tspan></text><text systemLanguage="zh-hant" id="trsvg167"><tspan x="0" y="-5" font-size="30" id="trsvg81">布</tspan><tspan x="0" y="20" font-size="18" id="trsvg82">贏石頭</tspan></text>
			
			
			<text systemLanguage="ast" id="trsvg148"><tspan x="0" y="-5" font-size="30" id="trsvg43">Papel</tspan><tspan x="0" y="20" font-size="18" id="trsvg44">vence a piedra</tspan></text>
			<text systemLanguage="ckb" id="trsvg149"><tspan x="0" y="-5" font-size="30" id="trsvg45">وەرەقە</tspan><tspan x="0" y="20" font-size="18" id="trsvg46">لە بەرد دەدات</tspan></text>
			<text systemLanguage="cs" id="trsvg150"><tspan x="0" y="-5" font-size="30" id="trsvg47">Papír</tspan><tspan x="0" y="20" font-size="18" id="trsvg48">porazí kámen</tspan></text>
			<text systemLanguage="de" id="trsvg151"><tspan x="0" y="-5" font-size="30" id="trsvg49">Papier</tspan><tspan x="0" y="20" font-size="18" id="trsvg50">schlägt Stein</tspan></text>
			<text systemLanguage="es" id="trsvg152"><tspan x="0" y="-5" font-size="30" id="trsvg51">Papel</tspan><tspan x="0" y="20" font-size="18" id="trsvg52">vence a piedra</tspan></text>
			<text systemLanguage="fr" id="trsvg153"><tspan x="0" y="-5" font-size="30" id="trsvg53">Papier</tspan><tspan x="0" y="20" font-size="18" id="trsvg54">bat la pierre</tspan></text>
			<text systemLanguage="hr" id="trsvg154"><tspan x="0" y="-5" font-size="30" id="trsvg55">Papir</tspan><tspan x="0" y="20" font-size="18" id="trsvg56">pobjeđuje kamen</tspan></text>
			<text systemLanguage="hu" id="trsvg155"><tspan x="0" y="-5" font-size="30" id="trsvg57">Papír</tspan><tspan x="0" y="20" font-size="18" id="trsvg58">legyőzi a követ</tspan></text>
			<text systemLanguage="it" id="trsvg156"><tspan x="0" y="-5" font-size="30" id="trsvg59">Carta</tspan><tspan x="0" y="20" font-size="18" id="trsvg60">batte il sasso</tspan></text>
			<text systemLanguage="ja" id="trsvg157"><tspan x="0" y="-5" font-size="30" id="trsvg61">パーは</tspan><tspan x="0" y="20" font-size="18" id="trsvg62">グーに勝ち</tspan></text>
			<text systemLanguage="lv" id="trsvg158"><tspan x="0" y="-5" font-size="30" id="trsvg63">Papīrs</tspan><tspan x="0" y="20" font-size="18" id="trsvg64">uzvar akmeni</tspan></text>
			<text systemLanguage="nl" id="trsvg159"><tspan x="0" y="-5" font-size="30" id="trsvg65">Papier</tspan><tspan x="0" y="20" font-size="18" id="trsvg66">verslaat steen</tspan></text>
			<text systemLanguage="no" id="trsvg160"><tspan x="0" y="-5" font-size="30" id="trsvg67">Papir</tspan><tspan x="0" y="20" font-size="18" id="trsvg68">slår stein</tspan></text>
			<text systemLanguage="pl" id="trsvg161"><tspan x="0" y="-5" font-size="30" id="trsvg69">Papier</tspan><tspan x="0" y="20" font-size="18" id="trsvg70">bije kamień</tspan></text>
			<text systemLanguage="ro" id="trsvg162"><tspan x="0" y="-5" font-size="30" id="trsvg71">Hȃrtia</tspan><tspan x="0" y="20" font-size="18" id="trsvg72">prinde piatra</tspan></text>
			<text systemLanguage="ru" id="trsvg163"><tspan x="0" y="-5" font-size="30" id="trsvg73">Бумага</tspan><tspan x="0" y="20" font-size="18" id="trsvg74">побеждает камень</tspan></text>
			<text systemLanguage="sv" id="trsvg164"><tspan x="0" y="-5" font-size="30" id="trsvg75">Påse</tspan><tspan x="0" y="20" font-size="18" id="trsvg76">slår sten</tspan></text>
			<text systemLanguage="uk" id="trsvg165"><tspan x="0" y="-5" font-size="30" id="trsvg77">Папір</tspan><tspan x="0" y="20" font-size="18" id="trsvg78">перемагає камінь</tspan></text>
			<text id="trsvg168-be" systemLanguage="be"><tspan x="0" y="-5" font-size="30" id="trsvg83-be">Папера</tspan><tspan x="0" y="20" font-size="18" id="trsvg84-be">перамагае камень</tspan></text>
			<text id="trsvg168-tok" systemLanguage="tok"><tspan x="0" y="-5" font-size="30" id="trsvg83-tok">lipu</tspan><tspan x="0" y="20" font-size="18" id="trsvg84-tok">li anpa e kiwen</tspan></text>
			<text id="trsvg168-vi" systemLanguage="vi"><tspan x="0" y="-5" font-size="30" id="trsvg83-vi">Bao</tspan><tspan x="0" y="20" font-size="18" id="trsvg84-vi">thắng búa</tspan></text><text id="trsvg168"><tspan x="0" y="-5" font-size="30" id="trsvg83">Paper</tspan><tspan x="0" y="20" font-size="18" id="trsvg84">beats rock</tspan></text></switch>
		<switch transform="rotate(60) translate(0,125)"><text systemLanguage="zh-hans" id="trsvg187"><tspan x="0" y="-5" font-size="30" id="trsvg121">石头</tspan><tspan x="0" y="20" font-size="18" id="trsvg122">赢剪刀/剪子</tspan></text><text systemLanguage="zh-hant" id="trsvg188"><tspan x="0" y="-5" font-size="30" id="trsvg123">石頭</tspan><tspan x="0" y="20" font-size="18" id="trsvg124">贏剪刀/剪子</tspan></text>
			
			
			<text systemLanguage="ast" id="trsvg169"><tspan x="0" y="-5" font-size="30" id="trsvg85">Piedra</tspan><tspan x="0" y="20" font-size="18" id="trsvg86">vence a tisories</tspan></text>
			<text systemLanguage="ckb" id="trsvg170"><tspan x="0" y="-5" font-size="30" id="trsvg87">بەرد</tspan><tspan x="0" y="20" font-size="18" id="trsvg88">لە مەقەست دەدات</tspan></text>
			<text systemLanguage="cs" id="trsvg171"><tspan x="0" y="-5" font-size="30" id="trsvg89">Kámen</tspan><tspan x="0" y="20" font-size="18" id="trsvg90">porazí nůžky</tspan></text>
			<text systemLanguage="de" id="trsvg172"><tspan x="0" y="-5" font-size="30" id="trsvg91">Stein</tspan><tspan x="0" y="20" font-size="18" id="trsvg92">schlägt Schere</tspan></text>
			<text systemLanguage="es" id="trsvg173"><tspan x="0" y="-5" font-size="30" id="trsvg93">Piedra</tspan><tspan x="0" y="20" font-size="18" id="trsvg94">vence a tijeras</tspan></text>
			<text systemLanguage="fr" id="trsvg174"><tspan x="0" y="-5" font-size="30" id="trsvg95">Pierre</tspan><tspan x="0" y="20" font-size="18" id="trsvg96">bat les ciseaux</tspan></text>
			<text systemLanguage="hr" id="trsvg175"><tspan x="0" y="-5" font-size="30" id="trsvg97">Kamen</tspan><tspan x="0" y="20" font-size="18" id="trsvg98">pobjeđuje škare</tspan></text>
			<text systemLanguage="hu" id="trsvg176"><tspan x="0" y="-5" font-size="30" id="trsvg99">Kő</tspan><tspan x="0" y="20" font-size="18" id="trsvg100">legyőzi az ollót</tspan></text>
			<text systemLanguage="it" id="trsvg177"><tspan x="0" y="-5" font-size="30" id="trsvg101">Sasso</tspan><tspan x="0" y="20" font-size="18" id="trsvg102">batte le forbici</tspan></text>
			<text systemLanguage="ja" id="trsvg178"><tspan x="0" y="-5" font-size="30" id="trsvg103">グーは</tspan><tspan x="0" y="20" font-size="18" id="trsvg104">チョキに勝ち</tspan></text>
			<text systemLanguage="lv" id="trsvg179"><tspan x="0" y="-5" font-size="30" id="trsvg105">Akmens</tspan><tspan x="0" y="20" font-size="18" id="trsvg106">uzvar šķēres</tspan></text>
			<text systemLanguage="nl" id="trsvg180"><tspan x="0" y="-5" font-size="30" id="trsvg107">Steen</tspan><tspan x="0" y="20" font-size="18" id="trsvg108">verslaat schaar</tspan></text>
			<text systemLanguage="no" id="trsvg181"><tspan x="0" y="-5" font-size="30" id="trsvg109">Stein</tspan><tspan x="0" y="20" font-size="18" id="trsvg110">slår saks</tspan></text>
			<text systemLanguage="pl" id="trsvg182"><tspan x="0" y="-5" font-size="30" id="trsvg111">Kamień</tspan><tspan x="0" y="20" font-size="18" id="trsvg112">bije nożyce</tspan></text>
			<text systemLanguage="ro" id="trsvg183"><tspan x="0" y="-5" font-size="30" id="trsvg113">Piatra</tspan><tspan x="0" y="20" font-size="18" id="trsvg114">zdrobeşte foarfecele</tspan></text>
			<text systemLanguage="ru" id="trsvg184"><tspan x="0" y="-5" font-size="30" id="trsvg115">Камень</tspan><tspan x="0" y="20" font-size="18" id="trsvg116">побеждает ножницы</tspan></text>
			<text systemLanguage="sv" id="trsvg185"><tspan x="0" y="-5" font-size="30" id="trsvg117">Sten</tspan><tspan x="0" y="20" font-size="18" id="trsvg118">slår sax</tspan></text>
			<text systemLanguage="uk" id="trsvg186"><tspan x="0" y="-5" font-size="30" id="trsvg119">Камінь</tspan><tspan x="0" y="20" font-size="18" id="trsvg120">перемагає ножиці</tspan></text>
			<text id="trsvg189-be" systemLanguage="be"><tspan x="0" y="-5" font-size="30" id="trsvg125-be">Камень</tspan><tspan x="0" y="20" font-size="18" id="trsvg126-be">перамагае нажніцы</tspan></text>
			<text id="trsvg189-tok" systemLanguage="tok"><tspan x="0" y="-5" font-size="30" id="trsvg125-tok">kiwen</tspan><tspan x="0" y="20" font-size="18" id="trsvg126-tok">li anpa e ilo kipisi</tspan></text>
			<text id="trsvg189-vi" systemLanguage="vi"><tspan x="0" y="-5" font-size="30" id="trsvg125-vi">Búa</tspan><tspan x="0" y="20" font-size="18" id="trsvg126-vi">thắng kéo</tspan></text><text id="trsvg189"><tspan x="0" y="-5" font-size="30" id="trsvg125">Rock</tspan><tspan x="0" y="20" font-size="18" id="trsvg126">beats scissors</tspan></text></switch>
	</g>
</svg>
